<?xml version="1.0" standalone="no"?>
<!DOCTYPE svg PUBLIC "-//W3C//DTD SVG 20010904//EN"
 "http://www.w3.org/TR/2001/REC-SVG-20010904/DTD/svg10.dtd">
<svg version="1.0" xmlns="http://www.w3.org/2000/svg"
 width="24.000000pt" height="24.000000pt" viewBox="0 0 24.000000 24.000000"
 preserveAspectRatio="xMidYMid meet">

<g transform="translate(0.000000,24.000000) scale(0.100000,-0.100000)"
fill="#000000" stroke="none">
<path d="M52 214 c-49 -34 -66 -109 -35 -154 29 -43 73 -66 73 -40 0 6 -7 10
-15 10 -8 0 -19 9 -25 20 -10 19 -10 20 9 8 11 -7 24 -9 28 -5 7 7 -9 22 -32
30 -9 3 -10 80 -1 96 3 4 25 5 50 1 24 -4 52 -3 60 2 17 10 19 6 30 -45 5 -21
1 -33 -19 -53 -42 -42 -28 -96 15 -61 49 38 62 95 35 147 -22 42 -53 60 -105
60 -25 0 -56 -7 -68 -16z"/>
</g>
</svg>
