<?xml version="1.0" standalone="no"?>
<!DOCTYPE svg PUBLIC "-//W3C//DTD SVG 20010904//EN"
 "http://www.w3.org/TR/2001/REC-SVG-20010904/DTD/svg10.dtd">
<svg version="1.0" xmlns="http://www.w3.org/2000/svg"
 width="512.000000pt" height="512.000000pt" viewBox="0 0 512.000000 512.000000"
 preserveAspectRatio="xMidYMid meet">

<g transform="translate(0.000000,512.000000) scale(0.100000,-0.100000)"
fill="#000000" stroke="none">
<path d="M2315 5109 c-800 -83 -1501 -518 -1927 -1196 -430 -684 -507 -1554
-203 -2308 81 -201 201 -412 334 -590 92 -122 304 -341 426 -440 239 -194 560
-368 839 -454 91 -28 101 -27 120 13 13 28 16 72 16 256 l0 223 -32 -7 c-284
-57 -518 -4 -692 155 -77 71 -130 149 -158 229 -41 123 -158 271 -260 331 -77
45 -110 82 -106 118 3 30 28 38 124 40 74 1 154 -21 216 -61 65 -41 159 -144
203 -223 126 -224 427 -311 664 -191 46 24 48 27 61 87 15 71 65 180 104 226
l27 31 -58 7 c-545 63 -923 359 -1039 813 -105 412 -52 773 155 1046 l51 66
-21 88 c-38 158 -25 376 33 530 l20 54 62 -6 c157 -17 342 -85 513 -188 l118
-71 197 32 c402 65 514 65 916 0 l197 -32 112 67 c179 108 360 174 516 191
l65 7 20 -54 c57 -153 71 -371 33 -530 l-21 -88 51 -66 c170 -225 242 -541
194 -854 -53 -353 -181 -585 -420 -763 -172 -128 -394 -209 -667 -242 l-48 -6
30 -37 c35 -45 83 -149 99 -217 7 -31 14 -218 19 -500 6 -411 9 -452 25 -477
l18 -27 52 16 c274 80 571 232 812 412 127 96 343 306 448 436 243 301 436
707 511 1075 41 202 50 302 51 535 0 296 -32 509 -116 770 -124 390 -330 728
-622 1024 -399 404 -893 653 -1462 737 -123 18 -478 26 -600 13z"/>
</g>
</svg>
